<svg width="12" height="10" viewBox="0 0 12 10" fill="none" xmlns="http://www.w3.org/2000/svg">
<circle cx="5" cy="5" r="5" fill="#267CC5"/>
<path d="M6.02143 4.99994L3.64095 6.9593C3.54593 7.03813 3.48641 7.15094 3.47543 7.27303C3.46444 7.39512 3.50288 7.51654 3.58233 7.61069C3.66179 7.70484 3.77577 7.76405 3.89933 7.77537C4.02288 7.78668 4.14594 7.74916 4.24156 7.67104L7.05419 5.35582C7.10693 5.31229 7.14935 5.25786 7.17846 5.19637C7.20757 5.13488 7.22266 5.06782 7.22266 4.99994C7.22266 4.93206 7.20757 4.865 7.17846 4.80351C7.14935 4.74202 7.10693 4.68759 7.05419 4.64407L4.24156 2.32885C4.14599 2.25035 4.02278 2.21254 3.899 2.22371C3.77522 2.23489 3.66099 2.29414 3.58141 2.38845C3.50182 2.48276 3.46339 2.60442 3.47455 2.7267C3.48572 2.84898 3.54557 2.96188 3.64095 3.0406L6.02143 4.99994Z" fill="white"/>
</svg>
