<svg width="205" height="249" viewBox="0 0 205 249" fill="none" xmlns="http://www.w3.org/2000/svg">
<path d="M146.958 9.03149C110.365 9.03149 103.5 61.1237 124.086 61.1237C144.669 61.1237 183.553 9.03149 146.958 9.03149Z" fill="black"/>
<path d="M86.1956 54.6688C97.1564 55.3378 109.182 12.8625 88.5814 15.5339C67.9882 18.2053 75.2304 53.9999 86.1956 54.6688Z" fill="black"/>
<path d="M35.9629 81.062C43.7585 77.6324 36.9669 44.0872 23.7111 53.2357C10.4612 62.3858 28.1674 84.4902 35.9629 81.062Z" fill="black"/>
<path d="M57.9273 63.5037C67.2073 61.6128 67.716 23.5675 51.167 30.3925C34.6151 37.219 48.6548 65.3977 57.9273 63.5037Z" fill="black"/>
<path d="M106.386 148.643C108.033 161.211 97.1611 167.418 86.5142 159.316C52.6205 133.524 142.633 120.658 136.7 85.4223C131.775 56.1748 41.987 65.1792 31.7625 110.943C24.8416 141.896 60.251 184.838 97.1983 184.838C115.375 184.838 136.34 168.434 140.262 147.655C143.258 131.809 105.012 138.158 106.386 148.643Z" fill="black"/>
<path d="M88.8599 203.322C84.3275 203.444 80.7482 205.072 78.116 208.194C75.3901 211.444 74.019 215.934 74.019 221.659C74.019 227.369 75.3902 231.847 78.116 235.096C80.8552 238.345 84.616 239.968 89.413 239.968C94.2233 239.968 97.9936 238.345 100.719 235.096C103.445 231.847 104.807 227.369 104.807 221.659C104.807 215.934 103.445 211.444 100.719 208.194C97.9936 204.945 94.2233 203.322 89.413 203.322C89.2257 203.322 89.0442 203.317 88.8599 203.322ZM89.1974 209.919C89.2699 209.917 89.3395 209.919 89.413 209.919C91.7781 209.919 93.6107 210.941 94.9069 212.992C96.203 215.043 96.8569 217.937 96.8569 221.659C96.8569 225.366 96.2029 228.239 94.9069 230.289C93.6107 232.34 91.7781 233.372 89.413 233.372C87.0613 233.372 85.2435 232.34 83.9474 230.289C82.6512 228.239 81.9974 225.366 81.9973 221.659C81.9973 217.937 82.6513 215.043 83.9474 212.992C85.2029 211.005 86.9511 209.981 89.1974 209.919Z" fill="black"/>
<path d="M37.6591 236.656C33.6668 240.007 27.727 239.968 25.2524 239.968C20.2684 239.968 16.3199 238.328 13.407 235.047C10.494 231.751 9.0376 227.287 9.0376 221.655C9.0376 215.961 10.5208 211.482 13.4872 208.217C16.4535 204.952 20.5156 203.319 25.6734 203.319C27.6643 203.319 29.5683 203.54 31.3856 203.981C33.2162 204.423 34.9399 205.078 36.5567 205.945L34.4804 212.08C33.5715 211.583 32.5308 211.093 31.566 210.748C29.9225 210.196 28.2723 209.92 26.6154 209.92C23.5421 209.92 21.1703 210.937 19.5001 212.972C17.8432 214.991 17.0147 217.886 17.0147 221.655C17.0147 225.394 17.8164 228.28 19.4199 230.315C21.0233 232.35 23.4331 233.367 26.2546 233.367C29.1211 233.367 30.8965 232.645 31.8434 231.884V225.772H25.6333V219.668H37.6591" fill="black"/>
<path d="M109.872 203.958H119.693L126.508 226.011L133.363 203.958H141.664L145.414 239.282H138.118L135.868 217.194L128.973 239.388H124.083L117.188 216.444L114.938 239.282H107.622L111.372 203.958" fill="black"/>
<path d="M150.68 203.958H171.505V210.843H158.397V218.17H168.473V224.305H158.397V232.397H171.946V239.282H150.68V203.958Z" fill="black"/>
<path d="M42.9336 203.958H47.802L63.1855 225.187V203.958H69.7512V239.282H64.8828L49.4993 218.053V239.282H42.9336V203.958Z" fill="black"/>
<path d="M185.25 203.407H182.231V211.775H180.999V203.407H177.987V202.388H185.25V203.407Z" fill="black"/>
<path d="M188.243 202.388L191.313 210.047L194.384 202.388H195.99V211.775H194.751V208.119L194.867 204.174L191.784 211.775H190.836L187.759 204.193L187.882 208.119V211.775H186.643V202.388H188.243Z" fill="black"/>
</svg>
