<svg width="585" height="198" viewBox="0 0 585 198" fill="none" xmlns="http://www.w3.org/2000/svg">
<path fill-rule="evenodd" clip-rule="evenodd" d="M143.672 0.374634C102.707 0.374634 95.0224 58.8211 118.068 58.8211C141.109 58.8211 184.639 0.374634 143.672 0.374634ZM75.6507 51.5788C87.9209 52.3294 101.383 4.67287 78.3215 7.67017C55.268 10.6675 63.3755 50.8283 75.6507 51.5788ZM19.4166 81.1916C28.1434 77.3436 20.5405 39.7064 5.70106 49.9709C-9.13174 60.2371 10.6897 85.0378 19.4166 81.1916ZM44.0052 61.4915C54.3938 59.3699 54.9633 16.6838 36.4373 24.3414C17.9079 32.0006 33.6249 63.6165 44.0052 61.4915ZM76.0069 168.991C87.9258 178.081 100.096 171.117 98.2528 157.016C96.7142 145.252 139.529 138.129 136.176 155.907C131.785 179.222 108.315 197.626 87.9674 197.626C46.6061 197.626 6.96648 149.446 14.7142 114.717C26.1602 63.3713 126.675 53.2685 132.188 86.0837C135.357 104.949 114.068 118.099 95.0648 129.838C74.2457 142.697 56.1704 153.862 76.0069 168.991ZM352.928 69.4492C342.613 69.7275 334.466 73.4414 328.475 80.5639C322.271 87.9761 319.15 98.2178 319.15 111.279C319.15 124.304 322.271 134.518 328.475 141.93C334.709 149.342 343.269 153.044 354.187 153.044C365.136 153.044 373.717 149.342 379.921 141.93C386.125 134.518 389.224 124.304 389.224 111.279C389.224 98.2178 386.125 87.9761 379.921 80.5639C373.717 73.1519 365.136 69.4493 354.187 69.4492C354.044 69.4492 353.903 69.4479 353.762 69.4467C353.483 69.4442 353.207 69.4417 352.928 69.4492ZM353.697 84.4968C353.806 84.4937 353.913 84.4948 354.021 84.4958C354.069 84.4962 354.117 84.4967 354.166 84.4968L354.187 84.4968C359.57 84.4969 363.741 86.8301 366.691 91.5076C369.641 96.1852 371.13 102.787 371.13 111.279C371.13 119.735 369.641 126.287 366.691 130.965C363.741 135.642 359.57 137.997 354.187 137.997C348.835 137.997 344.697 135.642 341.747 130.965C338.797 126.287 337.309 119.735 337.309 111.279C337.309 102.787 338.797 96.1852 341.747 91.5076C344.605 86.9763 348.584 84.6385 353.697 84.4968ZM208.346 153.045C214.087 153.046 227.408 153.048 236.394 145.489V106.737H209.023V120.662H223.157V134.604C221.002 136.339 216.961 137.987 210.437 137.987C204.015 137.987 198.531 135.666 194.881 131.024C191.232 126.383 189.407 119.798 189.407 111.27C189.407 102.671 191.292 96.0684 195.064 91.4628C198.865 86.8213 204.263 84.5005 211.258 84.5004C215.029 84.5005 218.785 85.1301 222.526 86.3894C224.722 87.1754 227.09 88.2935 229.159 89.428L233.885 75.4332C230.205 73.4543 226.282 71.961 222.116 70.9535C217.979 69.9461 213.646 69.4424 209.114 69.4423C197.375 69.4424 188.13 73.1665 181.378 80.6144C174.627 88.0627 171.251 98.2812 171.251 111.27C171.251 124.116 174.566 134.298 181.196 141.819C187.826 149.303 196.812 153.045 208.156 153.045L208.346 153.045ZM248.399 70.8995H259.48L294.493 119.327V70.8995H309.437V151.48H298.356L263.343 103.052V151.48H248.399V70.8995ZM423.106 70.8995H404.167L395.632 151.48H412.283L417.404 99.382L433.097 151.721H444.227L459.92 101.092L465.041 151.48H481.646L473.111 70.8995H454.218L438.616 121.205L423.106 70.8995ZM493.632 70.8995H541.03V86.6054H511.195V103.319H534.13V117.315H511.195V135.774H542.033V151.48H493.632V70.8995ZM563.611 55.3981H568.234V53.8346H557.112V55.3981H561.725V68.2429H563.611V55.3981ZM577.519 65.5908L572.818 53.8346H570.368V68.2429H572.264V62.632L572.077 56.6054L576.788 68.2429H578.24L582.962 56.5757L582.784 62.632V68.2429H584.681V53.8346H582.221L577.519 65.5908Z" fill="black"/>
</svg>
